<svg width="25" height="25" viewBox="0 0 25 25" fill="none" xmlns="http://www.w3.org/2000/svg">
<path d="M16.7513 14.5C16.5513 14.4 15.2513 13.8 15.0513 13.7C14.8513 13.6 14.6513 13.6 14.4513 13.8C14.2513 14 13.8513 14.6 13.6513 14.8C13.5513 15 13.3513 15 13.1513 14.9C12.4513 14.6 11.7513 14.2 11.1513 13.7C10.6513 13.2 10.1513 12.6 9.75131 12C9.65131 11.8 9.75131 11.6 9.85131 11.5C9.95131 11.4 10.0513 11.2 10.2513 11.1C10.3513 11 10.4513 10.8 10.4513 10.7C10.5513 10.6 10.5513 10.4 10.4513 10.3C10.3513 10.2 9.85131 9.00001 9.65131 8.50001C9.55131 7.80001 9.35131 7.80001 9.15131 7.80001C9.05131 7.80001 8.85131 7.80001 8.65131 7.80001C8.45131 7.80001 8.15131 8.00001 8.05131 8.10001C7.45131 8.70001 7.15131 9.40001 7.15131 10.2C7.25131 11.1 7.55131 12 8.15131 12.8C9.25131 14.4 10.6513 15.7 12.3513 16.5C12.8513 16.7 13.2513 16.9 13.7513 17C14.2513 17.2 14.7513 17.2 15.3513 17.1C16.0513 17 16.6513 16.5 17.0513 15.9C17.2513 15.5 17.2513 15.1 17.1513 14.7C17.1513 14.7 16.9513 14.6 16.7513 14.5ZM19.2513 5.40001C15.3513 1.50001 9.05131 1.50001 5.15131 5.40001C1.95131 8.60001 1.35131 13.5 3.55131 17.4L2.15131 22.5L7.45131 21.1C8.95131 21.9 10.5513 22.3 12.1513 22.3C17.6513 22.3 22.0513 17.9 22.0513 12.4C22.1513 9.80001 21.0513 7.30001 19.2513 5.40001ZM16.5513 19.4C15.2513 20.2 13.7513 20.7 12.1513 20.7C10.6513 20.7 9.25131 20.3 7.95131 19.6L7.65131 19.4L4.55131 20.2L5.35131 17.2L5.15131 16.9C2.75131 12.9 3.95131 7.90001 7.85131 5.40001C11.7513 2.90001 16.7513 4.20001 19.1513 8.00001C21.5513 11.9 20.4513 17 16.5513 19.4Z" fill="#F9F9F9"/>
</svg>
